<?xml version="1.0" encoding="UTF-8"?>
<svg xmlns="http://www.w3.org/2000/svg" version="1.1" viewBox="0 0 1102.7 351.5">
  <defs>
    <style>
      .cls-1 {
        isolation: isolate;
      }

      .cls-2 {
        fill: #f93;
      }

      .cls-3 {
        fill: #222221;
      }

      .cls-4 {
        fill: #f63;
      }

      .cls-5 {
        fill: #066;
      }
    </style>
  </defs>
  <!-- Generator: Adobe Illustrator 28.7.1, SVG Export Plug-In . SVG Version: 1.2.0 Build 142)  -->
  <g>
    <g id="Layer_1">
      <g>
        <g id="Lag_1-2">
          <g class="cls-1">
            <path class="cls-3" d="M1.3,324.2v-74.5h25.8l13.2,54.4,13.2-54.4h25.8v74.5h-15.1v-57.6h-1.6l-14.6,54.4h-15.1l-14.6-54.4h-1.6v57.6H1.3Z"/>
          </g>
          <g class="cls-1">
            <path class="cls-3" d="M108.1,310.3c1.7,1.5,4.2,2.2,7.4,2.2,6.8,0,12.9-.2,18.2-.7l3.1-.3.2,10.8c-8.4,2-16,3.1-22.8,3.1s-14.2-2.2-18-6.6c-3.7-4.4-5.6-11.5-5.6-21.4,0-19.7,8.1-29.5,24.2-29.5s23.9,8.3,23.9,24.8l-1.1,10.2h-32.2c0,3.4,1,5.8,2.7,7.3h0ZM124.3,291.8c0-4.4-.7-7.4-2.1-9.2-1.4-1.7-3.8-2.6-7.3-2.6s-5.9.9-7.3,2.7c-1.4,1.8-2.2,4.8-2.2,9h19,0Z"/>
            <path class="cls-3" d="M195.8,247.5v76.7h-14.6v-2.3c-5.1,2.4-9.5,3.6-13.3,3.6-8,0-13.5-2.3-16.7-6.9-3.1-4.6-4.7-11.9-4.7-21.9s1.9-17.2,5.6-21.8c3.8-4.6,9.4-6.8,17-6.8s5.6.4,9.8,1.1l2.1.4v-22.1h14.8ZM179.6,311l1.5-.3v-28.8c-4-.7-7.6-1.1-10.7-1.1-5.9,0-8.9,5.3-8.9,15.8s.7,9.8,2,12.2c1.3,2.4,3.5,3.6,6.5,3.6s6.2-.4,9.6-1.3h0Z"/>
            <path class="cls-3" d="M209.4,262.4v-14.9h14.7v14.9h-14.7ZM209.4,324.2v-54.8h14.7v54.8h-14.7Z"/>
            <path class="cls-3" d="M279.7,286.5v22.8c.1,1.8.4,3,.9,3.7.4.7,1.4,1.2,2.7,1.5l-.4,11.1c-3.7,0-6.7-.3-8.9-.8-2.2-.5-4.5-1.5-6.7-3.1-5.3,2.6-10.6,3.8-16.1,3.8-11.3,0-17-6-17-18s1.6-10,4.7-12.4c3.1-2.4,8-3.9,14.5-4.3l11.7-.9v-3.4c0-2.3-.5-3.8-1.5-4.7-1-.8-2.7-1.3-4.9-1.3l-20.6.9-.4-10.2c7.8-2.1,15.3-3.2,22.3-3.2s12.1,1.5,15.2,4.4,4.7,7.6,4.7,14h-.2ZM255,300.9c-4.1.4-6.1,2.6-6.1,6.6s1.8,6,5.4,6,5.8-.4,9.1-1.3l1.6-.4v-11.7l-10,.9h0Z"/>
          </g>
          <g class="cls-1">
            <path class="cls-3" d="M366.4,323c-7.7,1.7-14.7,2.5-20.9,2.5s-11.2-.8-14.9-2.3-6.6-4-8.8-7.3c-2.1-3.4-3.6-7.3-4.4-11.8s-1.2-10.2-1.2-17.1c0-14.4,2-24.4,6.1-30.1,4.1-5.7,11.5-8.5,22.4-8.5s13.6,1,21.8,3l-.4,12.1c-7.2-1.1-13.2-1.6-18-1.6s-8.2.6-10.2,1.9-3.6,3.7-4.5,7.3c-1,3.6-1.5,9.7-1.5,18.3s1,14.6,3,17.9,6,5,12.1,5,12.4-.5,19.2-1.5l.3,12.4v-.2Z"/>
          </g>
          <g class="cls-1">
            <path class="cls-3" d="M379.4,275.6c3.9-5,10.3-7.5,19.4-7.5s15.5,2.5,19.4,7.5,5.8,12,5.8,21.1c0,19.2-8.4,28.8-25.2,28.8s-25.2-9.6-25.2-28.8,1.9-16.1,5.8-21.1h0ZM390.8,309c1.5,2.6,4.2,3.9,8.1,3.9s6.6-1.3,8.1-3.9,2.2-6.8,2.2-12.4-.8-9.7-2.2-12.3c-1.5-2.6-4.2-3.8-8.1-3.8s-6.6,1.3-8.1,3.8c-1.5,2.6-2.2,6.7-2.2,12.3s.7,9.8,2.2,12.4Z"/>
            <path class="cls-3" d="M435.4,324.2v-76.7h14.7v76.7h-14.7Z"/>
            <path class="cls-3" d="M465,324.2v-76.7h14.7v76.7h-14.7Z"/>
            <path class="cls-3" d="M508.7,310.3c1.7,1.5,4.2,2.2,7.4,2.2,6.8,0,12.9-.2,18.2-.7l3.1-.3.2,10.8c-8.4,2-16,3.1-22.8,3.1s-14.2-2.2-18-6.6-5.6-11.5-5.6-21.4c0-19.7,8.1-29.5,24.2-29.5s23.9,8.3,23.9,24.8l-1.1,10.2h-32.2c0,3.4,1,5.8,2.7,7.3h0ZM524.9,291.8c0-4.4-.7-7.4-2.1-9.2-1.4-1.7-3.8-2.6-7.3-2.6s-5.9.9-7.3,2.7c-1.4,1.8-2.2,4.8-2.2,9h19-.1Z"/>
            <path class="cls-3" d="M599.5,331c0,6.2-2.4,10.9-7.2,13.9s-11.3,4.5-19.6,4.5-14.5-1.1-19-3.3c-4.4-2.2-6.6-6.2-6.6-11.9s2.6-9,7.9-13c-2.7-1.8-4.1-4.6-4.1-8.3s1.1-3.9,3.3-7.2l1-1.5c-5-3.6-7.5-8.9-7.5-15.8s2.1-12,6.3-15.2c4.2-3.1,9.8-4.7,16.7-4.7s6.2.4,9.3,1.1l1.8.3,17.6-.5v11.7l-8.2-.7c1.6,2.5,2.4,5,2.4,7.5,0,7.3-1.9,12.3-5.6,15.1-3.7,2.8-9.6,4.2-17.5,4.2s-3.2-.1-4.5-.4c-.7,1.9-1.1,3.5-1.1,4.7s.6,2,1.9,2.5c1.2.4,4.2.7,8.8.8,9.2,0,15.5,1.3,18.9,3.7,3.4,2.4,5,6.7,5,12.9v-.4ZM561.6,332.6c0,3.1,3.9,4.7,11.6,4.7s11.6-1.8,11.6-5.5-.7-3.2-2-3.8-4.1-.9-8.3-.9l-9.9-.8c-2,2-3,4.1-3,6.2h0ZM562.5,287.7c0,5.4,2.8,8.1,8.4,8.1s8.4-2.7,8.4-8.1-2.8-8.1-8.4-8.1-8.4,2.7-8.4,8.1Z"/>
            <path class="cls-3" d="M623.1,310.3c1.7,1.5,4.2,2.2,7.4,2.2,6.8,0,12.9-.2,18.2-.7l3.1-.3.2,10.8c-8.4,2-16,3.1-22.8,3.1s-14.2-2.2-18-6.6-5.6-11.5-5.6-21.4c0-19.7,8.1-29.5,24.2-29.5s23.9,8.3,23.9,24.8l-1.1,10.2h-32.2c0,3.4,1,5.8,2.7,7.3h0ZM639.3,291.8c0-4.4-.7-7.4-2.1-9.2-1.4-1.7-3.8-2.6-7.3-2.6s-5.9.9-7.3,2.7c-1.4,1.8-2.2,4.8-2.2,9h19-.1Z"/>
          </g>
          <g class="cls-1">
            <path class="cls-3" d="M718,324.2h-27.1v-75.8h27.1c12.3,0,20.5,4.9,24.5,14.7,2.3,5.6,3.5,13,3.5,22.1,0,19.1-4.8,31.1-14.2,36.1-3.8,2-8.4,3-13.8,3h0ZM737.4,285.2c0-14.5-3.3-23.6-9.8-27.2-2.6-1.5-5.8-2.2-9.6-2.2h-18.6v60.9h18.6c12.9,0,19.4-10.5,19.4-31.6h0Z"/>
            <path class="cls-3" d="M797.5,317.4l3.2-.3.2,6.5c-8.3,1.2-15.5,1.8-21.4,1.8s-13.5-2.3-16.8-6.8c-3.3-4.6-4.9-11.7-4.9-21.3,0-19.2,7.6-28.8,22.9-28.8s12.9,2.1,16.5,6.2c3.7,4.1,5.5,10.6,5.5,19.5l-.4,6.2h-36.2c0,6.1,1.1,10.6,3.3,13.5s6,4.4,11.5,4.4,11-.2,16.6-.7v-.2ZM794.5,293.6c0-6.7-1.1-11.5-3.2-14.2-2.2-2.8-5.7-4.2-10.5-4.2s-8.5,1.5-11,4.4c-2.4,2.9-3.7,7.6-3.8,14h28.5Z"/>
            <path class="cls-3" d="M823.8,324.2h-8.2v-54.8h8.1v3.8c5.9-3.3,11.6-4.9,17-4.9s12.2,2,14.7,5.9,3.8,11,3.8,21v28.9h-8.1v-28.7c0-7.6-.8-12.8-2.2-15.6-1.5-2.8-4.7-4.2-9.6-4.2s-4.8.3-7.4,1c-2.6.7-4.6,1.4-6,2l-2.1,1v44.5h0Z"/>
            <path class="cls-3" d="M882.6,324.2h-8.2v-54.8h8.1v3.8c5.5-3.3,10.8-4.9,16-4.9s11.5,1.9,14.2,5.6c2.4-1.5,5.5-2.8,9.4-3.9,3.8-1.1,7.2-1.7,10.1-1.7,7.3,0,12.2,2,14.7,5.9s3.8,10.9,3.8,21.1v28.9h-8.2v-28.7c0-7.6-.7-12.8-2.2-15.6-1.5-2.8-4.6-4.2-9.3-4.2s-4.9.3-7.5,1-4.5,1.4-5.9,2l-2.1,1c.9,2.4,1.4,7.7,1.4,16v28.5h-8.2v-28.3c0-7.9-.7-13.2-2.1-16.1-1.4-2.8-4.5-4.2-9.4-4.2s-4.7.3-7.2,1c-2.4.7-4.3,1.4-5.6,2l-1.9,1v44.5h.1Z"/>
            <path class="cls-3" d="M1004.7,285.9v28.1c.2,2.7,2.3,4.3,6.4,4.8l-.3,6.5c-5.8,0-10.1-1.5-13-4.4-6.6,2.9-13.2,4.4-19.7,4.4s-8.9-1.4-11.5-4.3c-2.6-2.8-3.9-6.9-3.9-12.3s1.4-9.3,4.1-11.8c2.7-2.5,6.9-4.1,12.7-4.7l17.2-1.6v-4.7c0-3.7-.8-6.4-2.4-8-1.6-1.6-3.8-2.4-6.6-2.4-5.8,0-11.9.4-18.2,1.1l-3.4.3-.3-6.2c8-1.6,15.2-2.4,21.4-2.4s10.7,1.4,13.5,4.3,4.2,7.3,4.2,13.4h-.2ZM971,308.3c0,6.7,2.8,10.1,8.3,10.1s9.9-.8,14.7-2.5l2.5-.9v-18.1l-16.2,1.5c-3.3.3-5.7,1.2-7.1,2.8-1.5,1.6-2.2,3.9-2.2,7h0Z"/>
            <path class="cls-3" d="M1020.9,324.2v-54.8h8.1v7.5c6.4-4.4,13-7.3,20.1-8.7v8.3c-3.1.6-6.3,1.5-9.6,2.7-3.3,1.2-5.9,2.3-7.6,3.3l-2.7,1.4v40.2h-8.3Z"/>
            <path class="cls-3" d="M1067.1,324.2h-8.2v-78.7h8.2v46.5l8.5-.4,15.7-22.1h9.3l-17.9,25.2,18.6,29.6h-9.3l-16.3-25.4-8.7.3v25.1h.1Z"/>
          </g>
        </g>
        <g id="Layer_1-2" data-name="Layer_1">
          <g id="Lag_2">
            <g id="Lag_1-2-2" data-name="Lag_1-2">
              <path class="cls-5" d="M400.9,175.9L486.5,26.8l-6.4-11.2c-9.9-17.2-34.6-17.2-44.5,0l-90.7,157.8c-9.8,17.1,2.5,38.4,22.3,38.4h45.2c-13-5.9-19.3-22.3-11.5-36.1Z"/>
              <path class="cls-4" d="M711.9,211.8h-181.4c-19.8,0-32.1-21.4-22.3-38.4L598.9,15.6c9.9-17.2,34.6-17.2,44.5,0l90.7,157.8c9.8,17.1-2.5,38.4-22.3,38.4h0Z"/>
              <path class="cls-2" d="M481.5,175.9l85.6-149-6.4-11.2c-9.9-17.2-34.6-17.2-44.5,0l-90.7,157.8c-9.8,17.1,2.5,38.5,22.3,38.5h45.2c-13-6-19.3-22.4-11.5-36.1h0Z"/>
            </g>
          </g>
        </g>
      </g>
    </g>
  </g>
</svg>